name processed_emg_signals												
nRows=144												
nColumns=7												
 												
endheader												
time	RGLTMED	RRF	RADDLONG	RST	RTA	RGM						
2.015	0.06829251	0.014933844	0.038842595	0.090564348	0.231727097	0.283141979						
2.016	0.067112052	0.014374392	0.039173427	0.092302461	0.230882204	0.281023777						
2.017	0.065969226	0.013845473	0.039509183	0.094046121	0.230031574	0.27887263						
2.018	0.064864577	0.013346807	0.039849598	0.095794124	0.229176663	0.276689541						
2.019	0.063798591	0.012878088	0.040194402	0.097545241	0.228318971	0.274475525						
2.02	0.062771695	0.012438984	0.040543319	0.099298221	0.227460042	0.272231606						
2.021	0.061784258	0.012029144	0.040896068	0.101051792	0.226601463	0.269958817						
2.022	0.060836589	0.01164819	0.041252364	0.102804661	0.225744856	0.2676582						
2.023	0.05992894	0.011295725	0.041611918	0.104555515	0.224891882	0.265330803						
2.024	0.059061503	0.010971332	0.041974438	0.106303024	0.224044233	0.262977686						
2.025	0.058234414	0.010674573	0.042339628	0.108045843	0.223203633	0.260599911						
2.026	0.057447749	0.010404992	0.042707191	0.109782608	0.222371833	0.258198549						
2.027	0.056701529	0.010162117	0.043076828	0.111511945	0.22155061	0.255774676						
2.028	0.055995715	0.009945457	0.043448236	0.113232466	0.220741761	0.253329374						
2.029	0.055330215	0.009754506	0.043821114	0.114942771	0.219947101	0.250863727						
2.03	0.054704882	0.009588745	0.044195159	0.116641452	0.219168462	0.248378826						
2.031	0.054119511	0.009447638	0.044570068	0.118327093	0.218407687	0.245875763						
2.032	0.053573848	0.00933064	0.04494554	0.119998271	0.217666625	0.243355632						
2.033	0.053067582	0.009237192	0.045321274	0.121653561	0.216947134	0.240819529						
2.034	0.052600354	0.009166724	0.045696971	0.123291531	0.216251069	0.238268551						
2.035	0.052171753	0.009118656	0.046072332	0.124910751	0.215580287	0.235703796						
2.036	0.051781317	0.0090924	0.046447064	0.12650979	0.214936635	0.23312636						
2.037	0.051428539	0.009087359	0.046820875	0.128087219	0.214321954	0.230537338						
2.038	0.051112863	0.00910293	0.047193477	0.129641615	0.213738069	0.227937824						
2.039	0.05083369	0.009138501	0.047564586	0.131171558	0.213186788	0.225328908						
2.04	0.050590373	0.009193458	0.047933923	0.132675636	0.212669901	0.222711678						
2.041	0.050382226	0.009267179	0.048301213	0.134152447	0.212189169	0.220087216						
2.042	0.050208521	0.009359041	0.048666188	0.135600602	0.21174633	0.217456602						
2.043	0.050068488	0.009468415	0.049028585	0.13701872	0.211343085	0.21482091						
2.044	0.049961323	0.009594674	0.049388148	0.138405439	0.210981101	0.212181206						
2.045	0.049886184	0.009737186	0.049744627	0.139759412	0.210662006	0.209538552						
2.046	0.049842192	0.00989532	0.05009778	0.14107931	0.210387383	0.206894003						
2.047	0.049828438	0.010068445	0.050447373	0.142363825	0.210158769	0.204248607						
2.048	0.049843981	0.01025593	0.05079318	0.143611669	0.209977649	0.201603404						
2.049	0.04988785	0.010457148	0.051134983	0.144821581	0.209845454	0.198959423						
2.05	0.049959046	0.010671472	0.051472574	0.145992323	0.209763558	0.19631769						
2.051	0.050056545	0.010898278	0.051805753	0.147122684	0.209733272	0.193679218						
2.052	0.050179297	0.011136948	0.052134332	0.148211484	0.20975584	0.191045011						
2.053	0.050326232	0.011386865	0.05245813	0.149257573	0.209832442	0.188416066						
2.054	0.050496257	0.01164742	0.052776979	0.150259833	0.209964182	0.185793368						
2.055	0.050688264	0.011918008	0.053090719	0.151217182	0.210152091	0.183177893						
2.056	0.050901125	0.012198029	0.053399205	0.152128571	0.210397122	0.180570605						
2.057	0.051133698	0.012486893	0.053702299	0.152992992	0.210700147	0.177972461						
2.058	0.051384829	0.012784012	0.053999878	0.153809473	0.211061953	0.175384405						
2.059	0.051653353	0.013088811	0.054291827	0.154577087	0.211483243	0.17280737						
2.06	0.051938093	0.01340072	0.054578047	0.155294946	0.211964628	0.170242279						
2.061	0.052237869	0.013719178	0.054858448	0.155962207	0.212506632	0.167690044						
2.062	0.052551493	0.014043632	0.055132954	0.156578073	0.213109683	0.165151565						
2.063	0.052877775	0.014373541	0.055401502	0.157141793	0.213774113	0.162627732						
2.064	0.053215522	0.014708373	0.05566404	0.157652667	0.214500159	0.160119422						
2.065	0.053563542	0.015047603	0.05592053	0.158110041	0.215287959	0.157627502						
2.066	0.053920645	0.015390721	0.056170946	0.158513314	0.216137551	0.155152825						
2.067	0.054285646	0.015737224	0.056415275	0.158861938	0.217048871	0.152696233						
2.068	0.054657364	0.016086623	0.056653517	0.159155416	0.218021754	0.150258556						
2.069	0.055034627	0.016438439	0.056885686	0.159393307	0.21905593	0.147840611						
2.07	0.055416272	0.016792204	0.057111808	0.159575225	0.220151029	0.145443203						
2.071	0.055801146	0.017147463	0.05733192	0.15970084	0.221306574	0.143067122						
2.072	0.056188111	0.017503771	0.057546075	0.159769879	0.222521985	0.140713147						
2.073	0.05657604	0.017860698	0.057754337	0.159782127	0.223796579	0.13838204						
2.074	0.056963826	0.018217825	0.057956781	0.159737428	0.225129569	0.13607455						
2.075	0.057350376	0.018574744	0.058153498	0.159635683	0.226520065	0.133791413						
2.076	0.057734619	0.018931061	0.058344588	0.159476855	0.227967074	0.131533347						
2.077	0.058115503	0.019286396	0.058530164	0.159260964	0.229469503	0.129301054						
2.078	0.058491998	0.019640378	0.058710351	0.158988092	0.23102616	0.127095223						
2.079	0.058863099	0.019992652	0.058885285	0.15865838	0.232635751	0.124916521						
2.08	0.059227825	0.020342874	0.059055113	0.158272028	0.234296891	0.122765601						
2.081	0.05958522	0.020690715	0.059219993	0.157829299	0.236008094	0.120643097						
2.082	0.059934357	0.021035854	0.059380094	0.157330512	0.237767788	0.118549623						
2.083	0.060274338	0.021377989	0.059535593	0.156776048	0.239574305	0.116485775						
2.084	0.060604292	0.021716825	0.05968668	0.156166346	0.241425894	0.114452126						
2.085	0.060923382	0.022052083	0.059833551	0.155501904	0.243320717	0.112449232						
2.086	0.0612308	0.022383495	0.059976414	0.154783277	0.245256856	0.110477624						
2.087	0.061525773	0.022710807	0.060115481	0.154011078	0.247232315	0.108537814						
2.088	0.061807559	0.023033774	0.060250976	0.153185977	0.24924502	0.106630287						
2.089	0.062075453	0.023352166	0.060383129	0.152308698	0.251292831	0.10475551						
2.09	0.062328782	0.023665765	0.060512175	0.15138002	0.253373538	0.10291392						
2.091	0.062566911	0.023974363	0.060638358	0.150400776	0.255484867	0.101105936						
2.092	0.062789239	0.024277765	0.060761925	0.149371851	0.257624488	0.099331945						
2.093	0.062995205	0.024575786	0.060883129	0.148294183	0.259790013	0.097592314						
2.094	0.063184281	0.024868255	0.061002228	0.147168758	0.261979006	0.095887381						
2.095	0.06335598	0.02515501	0.061119483	0.145996611	0.264188986	0.094217458						
2.096	0.06350985	0.025435899	0.061235159	0.144778824	0.266417428	0.09258283						
2.097	0.063645479	0.025710783	0.06134952	0.143516526	0.268661775	0.090983754						
2.098	0.063762493	0.025979533	0.061462837	0.142210889	0.270919436	0.089420461						
2.099	0.063860554	0.026242028	0.061575378	0.14086313	0.273187795	0.087893151						
2.1	0.063939364	0.02649816	0.061687412	0.139474503	0.275464214	0.086401999						
2.101	0.063998663	0.026747829	0.061799209	0.138046305	0.27774604	0.084947148						
2.102	0.064038229	0.026990944	0.061911037	0.136579869	0.280030607	0.083528715						
2.103	0.064057877	0.027227426	0.062023161	0.135076563	0.282315245	0.082146786						
2.104	0.064057459	0.0274572	0.062135846	0.13353779	0.284597283	0.080801418						
2.105	0.064036867	0.027680206	0.062249353	0.131964984	0.286874053	0.079492641						
2.106	0.063996027	0.027896388	0.062363937	0.130359609	0.289142896	0.078220453						
2.107	0.063934901	0.0281057	0.062479852	0.128723158	0.291401169	0.076984824						
2.108	0.06385349	0.028308103	0.062597343	0.127057146	0.293646247	0.075785695						
2.109	0.063751825	0.028503568	0.062716653	0.125363116	0.29587553	0.074622978						
2.11	0.063629977	0.028692071	0.062838017	0.123642629	0.298086445	0.073496554						
2.111	0.063488047	0.028873596	0.062961661	0.121897266	0.300276456	0.072406278						
2.112	0.06332617	0.029048136	0.063087807	0.120128625	0.302443063	0.071351975						
2.113	0.063144513	0.029215687	0.063216665	0.118338319	0.304583812	0.070333441						
2.114	0.062943275	0.029376256	0.063348439	0.11652797	0.306696294	0.069350446						
2.115	0.062722684	0.029529853	0.063483321	0.114699215	0.308778154	0.068402731						
2.116	0.062482999	0.029676496	0.063621497	0.112853695	0.310827095	0.067490009						
2.117	0.062224507	0.029816208	0.063763138	0.110993057	0.312840878	0.066611967						
2.118	0.061947521	0.029949017	0.063908406	0.109118952	0.314817333	0.065768267						
2.119	0.061652381	0.030074959	0.064057453	0.10723303	0.316754357	0.064958543						
2.12	0.061339453	0.030194073	0.064210417	0.10533694	0.318649919	0.064182405						
2.121	0.061009126	0.030306403	0.064367426	0.103432329	0.320502069	0.063439437						
2.122	0.060661813	0.030411999	0.064528592	0.101520836	0.322308933	0.062729202						
2.123	0.060297946	0.030510917	0.064694017	0.099604091	0.324068725	0.062051235						
2.124	0.059917981	0.030603213	0.064863788	0.097683717	0.325779741	0.061405053						
2.125	0.059522392	0.030688952	0.065037979	0.09576132	0.327440373	0.060790149						
2.126	0.05911167	0.030768201	0.06521665	0.093838496	0.329049101	0.060205994						
2.127	0.058686325	0.030841031	0.065399847	0.09191682	0.330604504	0.059652042						
2.128	0.058246881	0.030907516	0.065587601	0.089997852	0.332105257	0.059127724						
2.129	0.057793877	0.030967736	0.065779929	0.088083129	0.333550136	0.058632455						
2.13	0.057327867	0.031021772	0.065976832	0.086174168	0.33493802	0.058165632						
2.131	0.056849414	0.03106971	0.066178298	0.08427246	0.336267889	0.057726634						
2.132	0.056359094	0.031111638	0.066384299	0.08237947	0.337538832	0.057314826						
2.133	0.055857494	0.031147648	0.066594791	0.080496637	0.338750043	0.056929557						
2.134	0.055345206	0.031177834	0.066809719	0.078625371	0.339900825	0.056570164						
2.135	0.054822833	0.031202294	0.067029008	0.076767049	0.340990586	0.05623597						
2.136	0.054290982	0.031221127	0.067252571	0.074923018	0.342018848	0.055926287						
2.137	0.053750266	0.031234435	0.067480306	0.07309459	0.342985238	0.055640415						
2.138	0.053201302	0.031242325	0.067712097	0.071283045	0.343889495	0.055377648						
2.139	0.05264471	0.031244901	0.067947813	0.069489624	0.344731463	0.055137267						
2.14	0.052081113	0.031242274	0.068187308	0.067715532	0.3455111	0.054918549						
2.141	0.051511132	0.031234555	0.068430424	0.065961936	0.346228465	0.054720763						
2.142	0.050935391	0.031221857	0.068676988	0.064229964	0.346883729	0.054543173						
2.143	0.050354511	0.031204294	0.068926816	0.062520702	0.347477164	0.05438504						
2.144	0.049769112	0.031181984	0.069179708	0.060835199	0.348009148	0.05424562						
2.145	0.04917981	0.031155046	0.069435455	0.059174457	0.348480159	0.054124168						
2.146	0.048587219	0.031123598	0.069693835	0.057539439	0.348890777	0.054019939						
2.147	0.047991946	0.031087762	0.069954615	0.055931065	0.349241676	0.053932185						
2.148	0.047394594	0.031047662	0.070217549	0.05435021	0.349533629	0.053860161						
2.149	0.046795758	0.031003421	0.070482384	0.052797705	0.3497675	0.053803124						
2.15	0.04619603	0.030955164	0.070748855	0.051274338	0.349944243	0.053760334						
2.151	0.045595989	0.030903019	0.07101669	0.04978085	0.350064898	0.053731054						
2.152	0.044996208	0.030847112	0.071285608	0.048317939	0.350130591	0.053714552						
2.153	0.044397253	0.030787572	0.071555318	0.046886257	0.350142528	0.053710103						
2.154	0.043799676	0.03072453	0.071825525	0.04548641	0.350101993	0.053716987						
2.155	0.043204021	0.030658115	0.072095926	0.044118961	0.350010342	0.053734492						
2.156	0.042610822	0.030588458	0.072366213	0.042784425	0.349869006	0.053761915						
2.157	0.042020601	0.030515692	0.072636073	0.041483275	0.349679481	0.05379856						
2.158	0.041433868	0.03043995	0.072905188	0.040215935	0.349443327	0.053843744						
